<svg width="24" height="24" viewBox="0 0 24 24" fill="none" xmlns="http://www.w3.org/2000/svg"><path fill-rule="evenodd" clip-rule="evenodd" d="M22.5648 12.534L14.493 3.00043C14.3741 2.85991 14.2434 2.72971 14.1023 2.61123C12.7254 1.45486 10.668 1.62911 9.50694 3.00043L1.43514 12.534C1.10447 12.9246 0.923096 13.419 0.923096 13.9299C0.923096 15.1257 1.89646 16.0952 3.09717 16.0952H6.02482V19.9886C6.02482 21.1844 6.99819 22.1539 8.1989 22.1539H15.8011C17.0018 22.1539 17.9752 21.1844 17.9752 19.9886V16.0952H20.9028C21.4158 16.0952 21.9122 15.9145 22.3043 15.5852C23.2222 14.8143 23.3389 13.4482 22.5648 12.534Z" fill="#62B900"/></svg>