<svg width="107" height="158" viewBox="0 0 107 158" fill="none" xmlns="http://www.w3.org/2000/svg"><path d="M28.4774 76.1387L39.0343 77.7164C40.2236 77.8941 41.2935 78.537 42.0087 79.5036L48.3579 88.084C49.0731 89.0506 49.3751 90.2617 49.1974 91.4509L47.6196 102.008C47.4419 103.197 46.799 104.267 45.8325 104.982L37.252 111.331C36.2854 112.047 35.0743 112.349 33.8851 112.171L23.3282 110.593C22.139 110.415 21.0691 109.773 20.3539 108.806L14.0046 100.225C13.2894 99.2589 12.9874 98.0478 13.1652 96.8586L14.7429 86.3017C14.9206 85.1125 15.5635 84.0426 16.5301 83.3273L25.1106 76.9781C26.0771 76.2629 27.2882 75.9609 28.4774 76.1387Z" fill="#676767"/><path d="M35.5968 104.884L82.544 74.3263C85.0604 72.6884 88.4302 73.9744 89.199 76.8659C92.8933 90.7588 87.1614 105.744 74.758 113.817C62.355 121.89 46.3649 121.044 35.2048 112.01C32.8819 110.13 33.0804 106.522 35.5968 104.884Z" fill="#58CC02"/><path d="M65.0387 90.1495C62.2153 83.8079 54.7855 80.9559 48.4439 83.7794C42.1023 86.6028 39.2503 94.0326 42.0738 100.374C44.8972 106.716 52.327 109.568 58.6686 106.744C65.0102 103.921 67.8622 96.4911 65.0387 90.1495Z" fill="#58CC02"/><path d="M26.3758 80.8707L37.4213 82.5215C38.6731 82.7086 39.7993 83.3853 40.5522 84.4027L47.1953 93.3804C47.9482 94.3978 48.266 95.6727 48.0789 96.9245L46.4282 107.97C46.2411 109.222 45.5644 110.348 44.547 111.101L35.5693 117.744C34.5519 118.497 33.277 118.815 32.0252 118.628L20.9797 116.977C19.7279 116.79 18.6017 116.113 17.8488 115.096L11.2057 106.118C10.4528 105.101 10.135 103.826 10.322 102.574L11.9728 91.5284C12.1599 90.2766 12.8366 89.1503 13.854 88.3975L22.8317 81.7544C23.8491 81.0015 25.124 80.6836 26.3758 80.8707Z" fill="#7B7B7B"/><path d="M28.3146 88.6502L33.2912 89.394C34.543 89.5811 35.6692 90.2578 36.4221 91.2752L39.4152 95.3201C40.168 96.3376 40.4859 97.6124 40.2988 98.8642L39.555 103.841C39.368 105.093 38.6913 106.219 37.6738 106.972L33.6289 109.965C32.6115 110.718 31.3366 111.035 30.0848 110.848L25.1083 110.105C23.8565 109.918 22.7302 109.241 21.9774 108.223L18.9843 104.178C18.2314 103.161 17.9136 101.886 18.1007 100.634L18.8444 95.6578C19.0315 94.406 19.7082 93.2798 20.7257 92.5269L24.7705 89.5339C25.788 88.781 27.0628 88.4632 28.3146 88.6502Z" fill="#676767"/><path opacity="0.742327" fill-rule="evenodd" clip-rule="evenodd" d="M51.6719 105.685C51.5418 105.048 51.9532 104.425 52.5908 104.295C54.2932 103.948 55.6453 103.259 56.6973 102.257C57.7525 101.253 58.563 99.8788 59.0923 98.0758C59.2757 97.4513 59.9305 97.0938 60.5549 97.2771C61.1794 97.4604 61.5369 98.1153 61.3536 98.7397C60.731 100.86 59.7327 102.622 58.3224 103.964C56.9088 105.31 55.1387 106.181 53.062 106.604C52.4244 106.734 51.802 106.323 51.6719 105.685Z" fill="#3EB200"/><path fill-rule="evenodd" clip-rule="evenodd" d="M77.0711 60.8664L78.1952 59.9883C78.8161 59.5032 79.7128 59.6132 80.1975 60.2343C80.6828 60.855 80.5726 61.7517 79.9518 62.2366L78.8277 63.1148C78.2069 63.5999 77.3103 63.4898 76.8252 62.8689C76.3402 62.2481 76.4503 61.3515 77.0711 60.8664Z" fill="#FFEB16"/><path fill-rule="evenodd" clip-rule="evenodd" d="M91.4711 66.3025L93.4179 43.6452C93.7085 40.2588 96.69 37.7489 100.076 38.0402C100.083 38.0405 100.089 38.0412 100.096 38.0415L128.299 40.5536C131.677 40.8546 134.175 43.8317 133.885 47.2111L131.939 69.8679C131.648 73.2549 128.666 75.7647 125.28 75.4732C125.273 75.4731 125.267 75.4721 125.261 75.4715L97.0578 72.9595C93.6791 72.6588 91.181 69.6816 91.4711 66.3025Z" fill="#58CC02"/><path fill-rule="evenodd" clip-rule="evenodd" d="M43.8038 47.2176C53.9317 44.4982 60.4074 42.0357 63.2308 39.8299C66.0358 37.6385 69.9254 32.0376 74.9005 23.0264C78.2567 16.9474 85.9057 14.7399 91.9848 18.0961C93.4685 18.9156 94.7715 20.0266 95.8155 21.3622L119.704 51.9375C132.351 68.1227 129.482 91.4947 113.296 104.14L113.294 104.142C97.1077 116.787 73.7346 113.918 61.0881 97.7316L37.1566 67.1019C32.8813 61.63 33.8513 53.7283 39.3232 49.4531C40.6518 48.4151 42.1755 47.6549 43.8038 47.2176Z" fill="#58CC02"/><path fill-rule="evenodd" clip-rule="evenodd" d="M62.4717 50.6598C67.9645 51.6211 73.3637 47.3799 73.7026 41.8626C79.6526 49.4778 86.7194 58.5229 86.6746 58.4656C86.6449 58.4273 82.8978 61.3547 75.4327 67.2483C72.2643 63.2522 67.944 57.7227 62.4717 50.6598Z" fill="#89E219"/><path fill-rule="evenodd" clip-rule="evenodd" d="M50.9672 54.0533L51.7253 53.4611C57.8004 48.7159 66.5721 49.793 71.3187 55.8669L76.8327 62.9241C81.5796 68.9983 80.5028 77.7704 74.4281 82.5167L74.4271 82.5165L73.6691 83.1087C67.594 87.8539 58.8223 86.7769 54.0757 80.7029L48.5616 73.6457C43.8148 67.5716 44.8916 58.7995 50.9662 54.0532L50.9672 54.0533Z" fill="#89E219"/><path fill-rule="evenodd" clip-rule="evenodd" d="M79.061 31.7341L79.8182 31.1424C85.8935 26.3972 94.6649 27.4744 99.4116 33.5483L104.926 40.6053C109.673 46.6794 108.596 55.4515 102.521 60.1977L102.52 60.1979L101.817 60.7468C95.7768 65.4659 87.0605 64.4307 82.2934 58.4275L76.7233 51.4141C71.9292 45.3771 72.937 36.5967 78.9739 31.8027C79.0032 31.7795 79.032 31.7567 79.061 31.7341Z" fill="#89E219"/><path fill-rule="evenodd" clip-rule="evenodd" d="M54.2441 58.1777C58.6875 54.7062 65.1037 55.4941 68.5754 59.9373L72.3994 64.8316C75.8708 69.2745 75.0832 75.6904 70.6402 79.1618C70.6404 79.1616 70.6401 79.1619 70.6402 79.1618C66.1968 82.6332 59.7801 81.8457 56.3085 77.4024L52.4845 72.5082C49.0131 68.0653 49.8011 61.6491 54.2441 58.1777C54.2442 58.1775 54.2439 58.1778 54.2441 58.1777Z" fill="white"/><path fill-rule="evenodd" clip-rule="evenodd" d="M82.7489 35.9094C87.1923 32.4381 93.6085 33.2259 97.0803 37.669L100.904 42.5635C104.376 47.0063 103.588 53.4224 99.1452 56.8935C94.7018 60.3648 88.2851 59.5774 84.8132 55.1344L80.989 50.2403C77.5179 45.7971 78.3058 39.381 82.7489 35.9094Z" fill="white"/><path fill-rule="evenodd" clip-rule="evenodd" d="M94.1297 33.8287L79.0585 49.1163L78.6235 48.559C75.0043 43.927 75.8252 37.2384 80.4572 33.6192L82.0824 32.3496C85.8179 29.4313 91.2114 30.0936 94.1297 33.8287Z" fill="#89E219"/><path d="M86.3156 50.899C86.8153 50.631 87.2435 50.2173 87.5295 49.6794C88.2991 48.2319 87.7478 46.433 86.2972 45.662C85.8949 45.4481 85.4657 45.3357 85.0391 45.3159C85.3458 44.5681 85.8453 43.8874 86.5278 43.3541C88.6224 41.7177 91.6477 42.0887 93.284 44.1835L96.5463 48.3585C98.1831 50.453 97.8119 53.4776 95.7168 55.1145C93.6223 56.7509 90.5976 56.3796 88.9607 54.285L86.3156 50.899Z" fill="#4B4B4B"/><path d="M60.3309 71.18C61.0769 70.9655 61.7379 70.4609 62.1307 69.7222C62.9004 68.2746 62.3485 66.4761 60.8982 65.7049C60.3464 65.4115 59.7441 65.3091 59.1672 65.3746C59.4778 64.7189 59.942 64.1237 60.5527 63.6466C62.6474 62.01 65.6723 62.3813 67.3089 64.476L70.571 68.6511C72.2076 70.7456 71.8363 73.7704 69.7417 75.4069C67.647 77.0435 64.6222 76.6722 62.9855 74.5775L60.3309 71.18Z" fill="#4B4B4B"/><path fill-rule="evenodd" clip-rule="evenodd" d="M102.73 55.7126L95.2132 61.1744C92.8597 62.8843 89.566 62.3624 87.8561 60.0089L85.6196 56.9312L102.307 41.1894L104.543 44.267C107.203 47.9284 106.391 53.0527 102.73 55.7126Z" fill="#89E219"/><path fill-rule="evenodd" clip-rule="evenodd" d="M32.1516 61.641L90.8859 15.7553C91.5084 15.2689 92.3256 15.2737 92.7108 15.7661L97.8729 22.3732C98.2575 22.866 98.0647 23.6598 97.4415 24.1466L38.7077 70.0319C38.0849 70.5186 37.2678 70.5138 36.8829 70.0211L31.7208 63.4141C31.336 62.9214 31.5289 62.1276 32.1516 61.641Z" fill="#FF4B4B"/><path fill-rule="evenodd" clip-rule="evenodd" d="M32.5034 65.07L94.1086 16.9414L96.6309 20.1699L35.0258 68.2984L32.5034 65.07Z" fill="white"/><path fill-rule="evenodd" clip-rule="evenodd" d="M68.8338 83.9143L76.1556 78.1943C78.448 76.4033 78.8545 73.0931 77.0636 70.8006L74.7213 67.8027L54.9897 79.5043L57.3319 82.5022C60.1181 86.0681 65.2676 86.7004 68.8338 83.9143Z" fill="#89E219"/><path d="M87.3574 90.2512L94.7318 84.4859C95.1268 84.1766 95.6929 84.3236 95.8498 84.7764C96.6029 86.9505 95.8217 89.4689 93.8735 90.9921C91.9249 92.5149 89.2943 92.6644 87.3687 91.4073C86.9676 91.1452 86.962 90.56 87.3574 90.2512Z" fill="#89E219"/><path d="M100.23 80.1943L107.604 74.4286C108 74.1195 108.565 74.2667 108.723 74.7194C109.475 76.893 108.694 79.4114 106.746 80.9346C104.798 82.4579 102.167 82.6069 100.241 81.3498C99.8401 81.0884 99.8346 80.5031 100.23 80.1943Z" fill="#89E219"/><path d="M98.6597 91.4492L106.034 85.6841C106.429 85.3744 106.995 85.5216 107.152 85.9743C107.905 88.1484 107.124 90.6668 105.176 92.19C103.227 93.7129 100.597 93.8624 98.671 92.6054C98.2699 92.3432 98.2643 91.758 98.6597 91.4492Z" fill="#89E219"/><path fill-rule="evenodd" clip-rule="evenodd" d="M78.514 58.902C80.9738 57.0514 84.4642 57.5402 86.3166 59.9941L87.2354 61.2111C87.2377 61.2142 87.24 61.2172 87.2424 61.2203C89.0845 63.6715 88.5891 67.1549 86.1361 69.0003C83.6764 70.8508 80.1857 70.3622 78.3335 67.9082L77.4148 66.6911C77.4125 66.6881 77.4102 66.685 77.4079 66.6819C75.5657 64.2307 76.0609 60.7475 78.514 58.902Z" fill="#F49000"/><path d="M88.2558 59.3135L88.5255 59.6702L83.1352 65.3697L76.1619 68.9717L75.8924 68.6147C74.2872 65.4099 75.2356 61.2725 78.1251 59.0987C81.3678 56.6592 85.613 56.8893 88.2558 59.3135Z" fill="#FFC200"/><path d="M81.3253 59.1262C81.9078 58.9484 82.525 59.2759 82.703 59.8583C82.8811 60.4408 82.5531 61.0574 81.97 61.2356C81.0627 61.5128 80.369 62.034 79.8517 62.827C79.5188 63.3373 78.835 63.4815 78.3244 63.149C77.8138 62.8166 77.6697 62.1334 78.0026 61.6231C78.8027 60.3965 79.9227 59.555 81.3253 59.1262Z" fill="#FFDE00"/></svg>