<svg width="42" height="28" viewBox="0 0 42 28" fill="none" xmlns="http://www.w3.org/2000/svg"><path d="M22.8347 13.1415C22.8347 8.37619 26.6977 4.51318 31.463 4.51318V4.51318C36.2283 4.51318 40.0913 8.3762 40.0913 13.1415V16.6998C40.0913 21.4651 36.2283 25.3281 31.463 25.3281V25.3281C26.6977 25.3281 22.8347 21.4651 22.8347 16.6998V13.1415Z" fill="#8FE91E"/><path d="M1.90894 13.1415C1.90894 8.37619 5.77195 4.51318 10.5372 4.51318V4.51318C15.3025 4.51318 19.1655 8.3762 19.1655 13.1415V16.6998C19.1655 21.4651 15.3025 25.3281 10.5372 25.3281V25.3281C5.77195 25.3281 1.90894 21.4651 1.90894 16.6998V13.1415Z" fill="#8FE91E"/><path d="M17.2573 7.65754C17.7982 8.21626 17.6381 9.1344 16.9406 9.47248C14.631 10.5935 11.8267 10.0846 10.0082 8.20202C8.18972 6.31946 7.77691 3.50096 8.97975 1.23406C9.34274 0.550782 10.1292 0.429786 10.6701 0.984945L17.2573 7.65754Z" fill="#8FE91E"/><path fill-rule="evenodd" clip-rule="evenodd" d="M16.5057 6.92047C18.8082 9.24431 22.8687 9.24431 25.431 6.92047C27.9932 4.59663 25.0466 20.4507 25.0466 20.4116C25.0466 20.3938 23.6765 20.3867 20.9363 20.3938C20.2032 20.3973 18.8758 20.4009 16.9648 20.4116C15.1249 9.86709 14.9719 5.37243 16.5057 6.92047Z" fill="#8FE91E"/><path d="M7.15058 3.45942L13.3641 10.3527C13.8837 10.9292 13.6915 11.8438 12.9869 12.1569C10.6417 13.1961 7.85521 12.5911 6.10432 10.648C4.35343 8.70497 4.04026 5.87223 5.3214 3.64804C5.70218 2.979 6.63101 2.88291 7.15058 3.45942Z" fill="#8FE91E"/><path d="M24.7175 7.65691C24.1765 8.21563 24.3367 9.13378 25.0342 9.47185C27.3438 10.5928 30.1481 10.084 31.9666 8.20139C33.7815 6.32239 34.1943 3.50389 32.9915 1.23699C32.6285 0.553712 31.842 0.432715 31.3011 0.987875L24.7175 7.65691Z" fill="#8FE91E"/><path d="M34.8238 3.46042L28.6138 10.3536C28.0943 10.9302 28.2864 11.8448 28.9911 12.1579C31.3363 13.1971 34.1227 12.5885 35.8736 10.6455C37.6281 8.7024 37.9377 5.86967 36.6565 3.64547C36.2722 2.97643 35.3434 2.8839 34.8238 3.46042Z" fill="#8FE91E"/><path fill-rule="evenodd" clip-rule="evenodd" d="M10.6984 4.49951H10.3354C6.9475 4.49951 4.04003 6.53866 2.76245 9.45324V20.3251C4.04003 23.2433 6.95106 25.2824 10.3354 25.2824H10.6984C15.2607 25.2824 18.9582 21.5849 18.9582 17.0226V12.7629C18.9582 8.20058 15.2607 4.49951 10.6984 4.49951Z" fill="#8FE91E"/><path fill-rule="evenodd" clip-rule="evenodd" d="M39.2072 9.6205C37.9723 6.61695 35.015 4.49951 31.5666 4.49951H31.2783C31.257 4.49951 31.2356 4.49951 31.2143 4.49951C26.652 4.5351 22.983 8.26463 23.0186 12.8233L23.0506 17.0831C23.0862 21.6205 26.773 25.2789 31.3104 25.2789H31.5666C35.0186 25.2789 37.9723 23.1614 39.2072 20.1579V9.6205Z" fill="#8FE91E"/><path d="M0 13.9995H42V17.8177C42 23.0895 37.7264 27.3631 32.4545 27.3631H9.54546C4.27365 27.3631 0 23.0895 0 17.8177V13.9995Z" fill="#58CC02"/><path fill-rule="evenodd" clip-rule="evenodd" d="M20.9878 17.3618C22.7138 17.3618 24.1124 18.7604 24.1124 20.4864V21.5718C24.1124 23.2978 22.7138 24.6963 20.9878 24.6963C19.2619 24.6963 17.8633 23.2978 17.8633 21.5718V20.4864C17.8633 18.7604 19.2619 17.3618 20.9878 17.3618Z" fill="#F48000"/><path d="M16.6748 20.7851C17.0485 18.7922 18.8954 17.3545 21.1054 17.3545C23.1161 17.3545 24.9346 18.8278 25.3011 20.7851V20.9452C25.3011 21.0698 25.2584 21.1196 25.1445 21.1054L21.109 21.8242C20.9986 21.8242 20.9844 21.8242 20.8705 21.8242L16.8314 21.1018C16.7175 21.1161 16.6748 21.0662 16.6748 20.9417V20.7851Z" fill="#FFC200"/><rect x="19.0908" y="13.9995" width="5.72727" height="3.81818" fill="#FFC200"/><path d="M1.90918 12.688C1.90918 11.3035 3.02846 10.1812 4.40916 10.1812H17.1363C18.5171 10.1812 19.6363 11.3035 19.6363 12.688V16.3343C19.6363 21.2429 15.668 25.2221 10.7728 25.2221C5.87754 25.2221 1.90918 21.2429 1.90918 16.3343V12.688Z" fill="#122431"/><path fill-rule="evenodd" clip-rule="evenodd" d="M2.5752 19.7202L12.0882 10.1812H17.1365C18.0453 10.1812 18.8409 10.6674 19.2785 11.3947L6.55487 24.1531C4.77022 23.183 3.35503 21.6165 2.5752 19.7202Z" fill="#777777"/><path fill-rule="evenodd" clip-rule="evenodd" d="M17.1363 12.2322H4.40916C4.15813 12.2322 3.95462 12.4362 3.95462 12.688V16.3343C3.95462 20.1101 7.0072 23.171 10.7728 23.171C14.5383 23.171 17.5909 20.1101 17.5909 16.3343V12.688C17.5909 12.4362 17.3874 12.2322 17.1363 12.2322ZM4.40916 10.1812C3.02846 10.1812 1.90918 11.3035 1.90918 12.688V16.3343C1.90918 21.2429 5.87754 25.2221 10.7728 25.2221C15.668 25.2221 19.6363 21.2429 19.6363 16.3343V12.688C19.6363 11.3035 18.5171 10.1812 17.1363 10.1812H4.40916Z" fill="#122431"/><path d="M22.3633 12.688C22.3633 11.3035 23.4826 10.1812 24.8633 10.1812H37.5905C38.9712 10.1812 40.0904 11.3035 40.0904 12.688V16.3343C40.0904 21.2429 36.1221 25.2221 31.2269 25.2221C26.3316 25.2221 22.3633 21.2429 22.3633 16.3343V12.688Z" fill="#122431"/><path fill-rule="evenodd" clip-rule="evenodd" d="M23.0293 19.7202L32.5423 10.1812H37.5906C38.4994 10.1812 39.295 10.6674 39.7326 11.3947L27.009 24.1531C25.2243 23.183 23.8091 21.6165 23.0293 19.7202Z" fill="#777777"/><path fill-rule="evenodd" clip-rule="evenodd" d="M37.5905 12.2322H24.8633C24.6122 12.2322 24.4087 12.4362 24.4087 12.688V16.3343C24.4087 20.1101 27.4613 23.171 31.2269 23.171C34.9924 23.171 38.045 20.1101 38.045 16.3343V12.688C38.045 12.4362 37.8415 12.2322 37.5905 12.2322ZM24.8633 10.1812C23.4826 10.1812 22.3633 11.3035 22.3633 12.688V16.3343C22.3633 21.2429 26.3316 25.2221 31.2269 25.2221C36.1221 25.2221 40.0904 21.2429 40.0904 16.3343V12.688C40.0904 11.3035 38.9712 10.1812 37.5905 10.1812H24.8633Z" fill="#122431"/><path fill-rule="evenodd" clip-rule="evenodd" d="M23.727 12.9219H18.2725V17.0239H19.6361C19.6361 16.2688 20.2466 15.6566 20.9997 15.6566C21.7528 15.6566 22.3633 16.2688 22.3633 17.0239H23.727V12.9219Z" fill="#122431"/></svg>