<svg width="267" height="169" viewBox="0 0 267 169" xmlns="http://www.w3.org/2000/svg"><title>Locked Tab NEW</title><g fill="none" fill-rule="nonzero"><path d="M7.315 72.39L51.1 47.11c6.801-3.927 15.498-1.596 19.425 5.205l19.22 33.29c10.035 17.381 4.08 39.606-13.301 49.641l-5.474 3.16c-17.38 10.035-39.606 4.08-49.641-13.301L2.11 91.815C-1.817 85.014.514 76.317 7.315 72.39z" fill="#CF9C6D"/><path d="M40.982 52.952l10.107-5.835c6.801-3.927 15.513-1.57 19.459 5.264l6.886 11.927-20.772 78.763c-13.55 1.423-27.327-4.898-34.904-17.225l19.224-72.894z" fill="#D3A67B"/><path d="M17.851 119.08c8.322 8.055 15.466 12.5 21.433 13.334 5.967.836 16.329-1.16 31.087-5.984 8.374-8.526 13.465-15.453 15.273-20.782 1.808-5.328 2.016-14.017.623-26.068l3.479 6.025c10.035 17.381 4.08 39.606-13.301 49.641l-5.474 3.16c-17.38 10.035-39.606 4.08-49.641-13.301l-3.479-6.025z" fill="#C88E57"/><path d="M22.483 123.294c6.372 5.404 11.972 8.445 16.8 9.12 4.503.63 11.51-.35 21.018-2.944l-3.588 13.603c-13.582 1.463-27.379-4.842-34.915-17.18l.685-2.6z" fill="#CD9968"/><path d="M11.182 79.917a5.374 5.374 0 0 0-1.96 7.343l16.905 29.28c7.426 12.862 23.855 17.28 36.695 9.868l7.306-4.219c12.84-7.413 17.228-23.85 9.802-36.713l-16.905-29.28a5.374 5.374 0 0 0-7.339-1.973L11.182 79.917zm-4.226-7.32L51.46 46.903c6.603-3.812 15.052-1.54 18.872 5.075l16.904 29.28c9.76 16.906 3.993 38.508-12.881 48.251l-7.307 4.219c-16.875 9.742-38.467 3.936-48.228-12.97L1.916 91.478c-3.82-6.615-1.563-15.069 5.04-18.88z" fill="#E5AE7C"/><path d="M24.849 114.325l1.278 2.214c7.048 12.208 22.205 16.81 34.707 10.91l-2.61 9.893c-13.24 3.418-27.53-1.18-36.275-12.02l2.9-10.997zM74.42 75.933L63.025 56.197a5.374 5.374 0 0 0-7.339-1.974L38.008 64.429l3.036-11.512 10.416-6.014c6.603-3.812 15.052-1.54 18.872 5.075l7.143 12.373-3.055 11.582z" fill="#E7B689"/><g><path d="M215.815 47.11L259.6 72.39c6.801 3.927 9.132 12.624 5.205 19.425l-19.22 33.29c-10.035 17.381-32.26 23.336-49.641 13.301l-5.474-3.16c-17.38-10.035-23.336-32.26-13.301-49.641l19.22-33.29c3.927-6.801 12.624-9.132 19.425-5.205z" fill="#C2D1DD"/><path d="M249.482 66.548l10.107 5.835c6.801 3.927 9.116 12.65 5.17 19.484l-6.885 11.927-78.597 21.392c-8.008-11.024-9.422-26.114-2.535-38.84l72.74-19.798z" fill="#D1DCE5"/><path d="M180.649 79.58c-2.815 11.234-3.093 19.643-.832 25.228 2.26 5.585 9.169 13.562 20.726 23.93 11.57 2.99 20.115 3.935 25.634 2.836 5.518-1.098 13.147-5.263 22.888-12.494l-3.479 6.025c-10.035 17.381-32.26 23.336-49.641 13.301l-5.474-3.16c-17.38-10.035-23.336-32.26-13.301-49.641l3.479-6.025z" fill="#AAC1D4"/><path d="M179.315 85.698c-1.495 8.22-1.328 14.59.502 19.11 1.705 4.215 6.058 9.791 13.058 16.73l-13.574 3.694c-8.058-11.031-9.496-26.132-2.58-38.828l2.594-.706z" fill="#BFD0DE"/><path d="M211.23 54.223a5.374 5.374 0 0 0-7.339 1.974l-16.905 29.28c-7.426 12.862-3.038 29.3 9.802 36.712l7.306 4.219c12.84 7.413 29.269 2.994 36.695-9.869l16.905-29.28a5.374 5.374 0 0 0-1.96-7.342L211.23 54.223zm4.226-7.32l44.504 25.694c6.603 3.812 8.86 12.266 5.04 18.881l-16.904 29.28c-9.76 16.906-31.353 22.712-48.228 12.97l-7.307-4.219c-16.874-9.743-22.642-31.345-12.881-48.251l16.904-29.28c3.82-6.615 12.269-8.887 18.872-5.075z" fill="#D6E4EF"/><path d="M188.265 83.262l-1.279 2.214c-7.048 12.208-3.454 27.636 7.906 35.512l-9.872 2.687c-9.581-9.758-12.745-24.433-7.729-37.426l10.974-2.987zm58.034 23.734l11.395-19.736a5.374 5.374 0 0 0-1.96-7.343L238.055 69.71l11.489-3.127 10.416 6.014c6.603 3.812 8.86 12.266 5.04 18.881l-7.143 12.373-11.558 3.145z" fill="#E0EAF3"/></g><rect fill="#FFF1BF" transform="rotate(45 85.728 11.728)" x="76.728" y="2.728" width="18" height="18" rx="5"/><rect fill="#FEE68C" transform="rotate(45 71 29.757)" x="65" y="23.757" width="12" height="12" rx="2"/><rect fill="#FFF1BF" transform="rotate(45 184.728 157.728)" x="175.728" y="148.728" width="18" height="18" rx="5"/><g><path d="M100.54 35h65.92C176.7 35 185 43.3 185 53.54v49.08c0 26.167-21.213 47.38-47.38 47.38h-8.24C103.213 150 82 128.787 82 102.62V53.54C82 43.3 90.3 35 100.54 35z" fill="#FEC701"/><path d="M151.226 35h15.216c10.239 0 18.54 8.266 18.54 18.462v17.796l-74.8 74.717C93.954 138.812 82.52 122.839 82 104.15L151.226 35z" fill="#FED540"/><path d="M130.798 67.728l6.688-6.688c5.81-5.81 15.426-5.612 21.479.441 6.053 6.053 6.25 15.67.441 21.479l-16.404 16.405c-.34.34-.805.524-1.285.51l-8.68-.25a.576.576 0 0 0-.425.166.6.6 0 0 0 .018.848l3.932 3.932c.34.34.34.893 0 1.234l-3.224 3.223c-1.466 1.466-3.594 2.081-5.682 1.643l-14.775-3.106-3.106-14.775c-.438-2.089.177-4.216 1.643-5.682l12.956-12.956a.872.872 0 0 1 1.234 0l3.915 3.915a.6.6 0 0 0 .847.017.576.576 0 0 0 .167-.425l-.25-8.647c-.013-.48.171-.945.51-1.284z" fill="#F89701"/><path d="M145.125 75.622l-36.94 36.94" stroke="#ED8200" stroke-width="4.292" stroke-linecap="round"/><path d="M82 94.054c4.145 14.39 9.314 23.98 15.507 28.769 6.193 4.79 19.194 9.252 39.003 13.387 15.013-4.13 25.277-8.593 30.792-13.387 5.515-4.795 11.414-14.384 17.698-28.769v8.566c0 26.167-21.213 47.38-47.38 47.38h-8.24C103.213 150 82 128.787 82 102.62v-8.566z" fill="#FFC100"/><path d="M84.483 101.762c3.67 10.164 8.012 17.185 13.024 21.06 4.673 3.615 13.223 7.043 25.65 10.285l-12.893 12.879c-16.187-7.146-27.62-23.09-28.238-41.77l2.457-2.454z" fill="#FFD040"/><path d="M100 45.922c-3.866 0-7 3.111-7 6.95v43.686c0 19.192 15.67 34.75 35 34.75h11c19.33 0 35-15.558 35-34.75V52.872c0-3.839-3.134-6.95-7-6.95h-67zM100 35h67c9.941 0 18 8.001 18 17.872v43.686c0 25.224-20.595 45.672-46 45.672h-11c-25.405 0-46-20.448-46-45.672V52.872C82 43.002 90.059 35 100 35z" fill="#FEE333"/><path d="M93 93.255v3.303c0 18.215 14.115 33.156 32.077 34.63l-9.395 9.386c-17.18-4.73-30.318-19.107-33.125-36.888L93 93.255zm81-10.935V52.872c0-3.839-3.134-6.95-7-6.95h-26.615L151.32 35H167c9.941 0 18 8.001 18 17.872v18.46L174 82.32z" fill="#FEEA66"/></g></g></svg>