<?xml version="1.0" encoding="UTF-8"?><svg width="47px" height="52px" viewBox="0 0 47 52" version="1.1" xmlns="http://www.w3.org/2000/svg" xmlns:xlink="http://www.w3.org/1999/xlink"><title>Locked</title><desc>Created with Sketch.</desc><g id="Page-1" stroke="none" stroke-width="1" fill="none" fill-rule="evenodd"><g id="Locked" fill-rule="nonzero"><g id="Group-Copy-2"><path d="M8.424,0 L38.576,0 C43.2284467,0 47,3.77155327 47,8.424 L47,30.472 C47,42.3615861 37.3615861,52 25.472,52 L21.528,52 C9.63841391,52 0,42.3615861 0,30.472 L0,8.424 C0,3.77155327 3.77155327,0 8.424,0 Z" id="Mask" fill="#42535C"/><path d="M0,26.7027027 C1.89139391,33.2093581 4.25003533,37.5455048 7.07592424,39.7111429 C9.90181315,41.8767809 15.8342834,43.8945806 24.8733351,45.7645421 C31.7240268,43.8968647 36.4076166,41.879065 38.9241044,39.7111429 C41.4405922,37.5432208 44.1325574,33.2070741 47,26.7027027 L47,30.472 C47,42.3615861 37.3615861,52 25.472,52 L21.528,52 C9.63841391,52 0,42.3615861 0,30.472 L0,26.7027027 Z" id="Mask" fill="#63757E"/><path d="M8.21359223,4.93843844 C6.44949823,4.93843844 5.01941748,6.34544748 5.01941748,8.08108108 L5.01941748,27.8348348 C5.01941748,36.5130029 12.1698212,43.548048 20.9902913,43.548048 L26.0097087,43.548048 C34.8301788,43.548048 41.9805825,36.5130029 41.9805825,27.8348348 L41.9805825,8.08108108 C41.9805825,6.34544748 40.5505018,4.93843844 38.7864078,4.93843844 L8.21359223,4.93843844 Z M8.21359223,0 L38.7864078,0 C43.3226495,0 47,3.61802324 47,8.08108108 L47,27.8348348 C47,39.2404271 37.6023265,48.4864865 26.0097087,48.4864865 L20.9902913,48.4864865 C9.3976735,48.4864865 -2.06057393e-13,39.2404271 -2.06057393e-13,27.8348348 L-2.06057393e-13,8.08108108 C-2.06057393e-13,3.61802324 3.6773505,0 8.21359223,0 Z" id="Combined-Shape" fill="#788890"/></g><g id="Group-6-Copy-2" opacity="0.8" transform="translate(16.183202, 13.131234)" fill="#27363E"><g id="Group-38" transform="translate(0.415972, 0.150204)"><ellipse id="Oval-25" cx="6.98083456" cy="6.78843341" rx="6.76229092" ry="6.78537274"/><path d="M4.12936784,9.72245834 C5.70414099,6.56212847 8.25855782,6.56449304 9.83218576,9.72245834 L12.4828139,15.0417535 C14.0576201,18.2020834 12.4622452,20.764037 8.94660199,20.764037 L5.01506713,20.764037 C1.48726503,20.764037 -0.0947995061,18.1997188 1.47879539,15.0417535 L4.12936784,9.72245834 Z" id="Triangle-4"/></g></g></g></g></svg>