<svg width="31" height="29" viewBox="0 0 31 29" fill="none" xmlns="http://www.w3.org/2000/svg"><g clip-path="url(#clip0_11037_107671)"><path d="M13.0456 2.34516C13.9532 0.463071 16.6337 0.463071 17.5414 2.34516L20.1473 7.74877C20.5184 8.51827 21.2574 9.04448 22.1059 9.14351L28.0841 9.84121C30.2204 10.0905 31.0618 12.745 29.4593 14.1795L25.1779 18.0121C24.5174 18.6033 24.2201 19.5006 24.3969 20.3693L25.5403 25.9866C25.9618 28.0576 23.7792 29.6823 21.9162 28.6842L16.472 25.7675C15.7358 25.3731 14.8511 25.3731 14.1149 25.7675L8.67068 28.6842C6.80774 29.6823 4.62508 28.0576 5.04661 25.9866L6.18997 20.3693C6.36679 19.5006 6.06951 18.6033 5.40899 18.0121L1.12761 14.1795C-0.474924 12.745 0.366528 10.0905 2.50284 9.84121L8.48098 9.14351C9.32953 9.04448 10.0685 8.51827 10.4396 7.74877L13.0456 2.34516Z" fill="#52656D"/></g><defs><clipPath id="clip0_11037_107671"><rect width="30" height="28" fill="white" transform="translate(0.293457 0.933594)"/></clipPath></defs></svg>